Coordinates
version=1
nRows=5
nColumns=40
inDegrees=yes

Units are S.I. units (second, meters, Newtons, ...)
Angles are in degrees.

endheader
time	pelvis_tilt	pelvis_list	pelvis_rotation	pelvis_tx	pelvis_ty	pelvis_tz	hip_flexion_r	hip_adduction_r	hip_rotation_r	knee_angle_r	knee_angle_r_beta	ankle_angle_r	subtalar_angle_r	mtp_angle_r	hip_flexion_l	hip_adduction_l	hip_rotation_l	knee_angle_l	knee_angle_l_beta	ankle_angle_l	subtalar_angle_l	mtp_angle_l	lumbar_extension	lumbar_bending	lumbar_rotation	arm_flex_r	arm_add_r	arm_rot_r	elbow_flex_r	pro_sup_r	wrist_flex_r	wrist_dev_r	arm_flex_l	arm_add_l	arm_rot_l	elbow_flex_l	pro_sup_l	wrist_flex_l	wrist_dev_l
      1.75000000	      4.09303635	     -1.41496232	     -3.10736056	      0.10452607	      0.89766920	      1.00660088	     20.72615324	     -0.52492103	    -10.17117827	    -32.64547112	     -0.56977096	      2.76942706	     -5.10490184	      4.84602407	     -5.48697536	     -2.36675662	      8.25356056	    -14.62717093	     -0.25529229	     12.70413424	     -0.96142807	     -6.22797458	     -9.76213550	      3.56561533	     -2.54702923	      5.32429029	     -9.93355268	     16.31086453	     14.96595892	     89.95437384	      0.00000000	      0.00000000	     15.67177904	     11.61513004	    -16.47584477	     27.67207082	     89.95437384	      0.00000000	      0.00000000
      1.76000000	      4.48556834	     -1.54101905	     -3.00372336	      0.11062723	      0.89772508	      1.00668019	     20.51109180	     -0.53010300	    -11.29173339	    -31.12970592	     -0.54331586	      2.33086300	     -4.13455062	      4.36505819	     -6.50870987	     -2.22564322	      8.41936763	    -14.32360739	     -0.24999411	     12.80896453	     -1.09467108	     -6.28906604	    -10.22121188	      3.73963951	     -2.68667946	      5.27281073	     -9.93341005	     15.68079415	     14.79386698	     89.95437384	      0.00000000	      0.00000000	     15.90125729	     11.72597280	    -16.69229086	     28.28404625	     89.95437384	      0.00000000	      0.00000000
      1.77000000	      4.32681098	     -1.47155529	     -3.04875042	      0.11621888	      0.89681210	      1.00696246	     21.06892978	     -0.52291886	    -11.71023633	    -29.86098221	     -0.52117246	      1.88304408	     -3.71734840	      4.24570012	     -6.79130932	     -2.31835032	      8.36403092	    -14.24727171	     -0.24866180	     12.96720747	     -1.29462065	     -6.34157377	    -10.10154439	      3.70161460	     -2.74483512	      5.20078095	     -9.94896650	     15.52061067	     14.64057420	     89.95437384	      0.00000000	      0.00000000	     16.05485646	     11.80891800	    -16.68235278	     28.83399296	     89.95437384	      0.00000000	      0.00000000
      1.78000000	      4.50757735	     -1.63417743	     -2.94544569	      0.12209623	      0.89647588	      1.00714359	     21.02715185	     -0.41229692	    -12.79606121	    -28.40494208	     -0.49575976	      1.40816387	     -3.06579776	      3.91434093	     -7.43572471	     -2.10126010	      8.49699380	    -14.24476540	     -0.24861806	     13.12771660	     -1.63994849	     -6.52348924	    -10.35129142	      3.91679585	     -2.92649658	      5.20784077	     -9.91717814	     15.16392451	     14.41909577	     89.95437384	      0.00000000	      0.00000000	     16.16700723	     11.88212027	    -16.60485749	     29.46513867	     89.95437384	      0.00000000	      0.00000000
      1.79000000	      4.55207326	     -1.71875262	     -2.76647118	      0.12761535	      0.89588910	      1.00715734	     21.15079538	     -0.38087552	    -13.82974791	    -27.06854737	     -0.47243528	      1.16719628	     -2.45415578	      3.49189986	     -7.85840649	     -1.95435475	      8.60637778	    -14.29369680	     -0.24947207	     13.30946000	     -2.00789566	     -6.71838464	    -10.48541247	      4.07140036	     -3.18294259	      5.23147793	     -9.88478275	     14.79945893	     14.26829646	     89.95437384	      0.00000000	      0.00000000	     16.31391427	     11.92381242	    -16.59656320	     29.94162454	     89.95437384	      0.00000000	      0.00000000
